<svg width="40" height="26" viewBox="0 0 40 26" fill="none" xmlns="http://www.w3.org/2000/svg">
<path d="M0 11.6264V10.0025C0 9.03166 0.340359 8.09157 0.96186 7.34577C1.91331 6.20403 3.40268 5.65826 4.86656 5.91492L6.91404 6.27389C7.62101 6.39784 8.34899 6.30226 9 6L9.3314 5.88953C10.0703 5.64323 10.881 5.74493 11.5362 6.16611L11.7718 6.31757C11.9222 6.41428 12.0505 6.54177 12.1481 6.69165L12.7112 7.55642C12.86 7.78497 13.1814 7.81856 13.3743 7.62571C13.4548 7.54522 13.5639 7.5 13.6778 7.5H15.5H16.3286C16.7651 7.5 17.1904 7.63763 17.5442 7.89331C18.0727 8.2753 18.7501 8.38664 19.373 8.19393L20 8L20.6389 7.84029C21.5172 7.6207 22.4451 7.72256 23.2549 8.12746L23.695 8.34751C23.8959 8.44797 24.0727 8.59084 24.213 8.76626C24.9825 9.72811 26.5119 9.45373 26.8991 8.28439L28.9843 1.98613C29.3017 1.02749 30.1218 0.321973 31.1171 0.151351C31.6907 0.0530235 32.2807 0.140343 32.8012 0.400596L33.4566 0.728303C33.8066 0.903323 34.0803 1.20072 34.2256 1.56408L34.3085 1.77119C34.6572 2.64302 35.7384 2.9462 36.4896 2.38281C36.8144 2.13922 37.2275 2.04551 37.6256 2.12513L38.0036 2.20072C38.9097 2.38195 39.618 3.09026 39.7993 3.99641L39.863 4.31515C39.9529 4.76472 39.9301 5.22955 39.7966 5.66815L36.916 15.1332C36.6666 15.9524 36.9605 16.8399 37.6495 17.3484C37.8805 17.5189 38.0726 17.7367 38.2129 17.9872L38.2261 18.011C38.4057 18.3316 38.5 18.693 38.5 19.0605V24.191C38.5 24.3942 38.4527 24.5946 38.3618 24.7764C38.1401 25.2199 37.6868 25.5 37.191 25.5H2C0.895431 25.5 0 24.6046 0 23.5V18.3488C0 17.864 0.135724 17.389 0.391802 16.9775C0.779077 16.3551 0.885118 15.5979 0.683732 14.8931L0.239996 13.34C0.0807756 12.7827 0 12.206 0 11.6264Z" fill="white"/>
<path d="M6.20703 12.6699H7.95898C7.92383 13.2441 7.76562 13.7539 7.48438 14.1992C7.20703 14.6445 6.81836 14.9922 6.31836 15.2422C5.82227 15.4922 5.22461 15.6172 4.52539 15.6172C3.97852 15.6172 3.48828 15.5234 3.05469 15.3359C2.62109 15.1445 2.25 14.8711 1.94141 14.5156C1.63672 14.1602 1.4043 13.7305 1.24414 13.2266C1.08398 12.7227 1.00391 12.1582 1.00391 11.5332V10.9414C1.00391 10.3164 1.08594 9.75195 1.25 9.24805C1.41797 8.74023 1.65625 8.30859 1.96484 7.95312C2.27734 7.59766 2.65039 7.32422 3.08398 7.13281C3.51758 6.94141 4.00195 6.8457 4.53711 6.8457C5.24805 6.8457 5.84766 6.97461 6.33594 7.23242C6.82812 7.49023 7.20898 7.8457 7.47852 8.29883C7.75195 8.75195 7.91602 9.26758 7.9707 9.8457H6.21289C6.19336 9.50195 6.125 9.21094 6.00781 8.97266C5.89062 8.73047 5.71289 8.54883 5.47461 8.42773C5.24023 8.30273 4.92773 8.24023 4.53711 8.24023C4.24414 8.24023 3.98828 8.29492 3.76953 8.4043C3.55078 8.51367 3.36719 8.67969 3.21875 8.90234C3.07031 9.125 2.95898 9.40625 2.88477 9.74609C2.81445 10.082 2.7793 10.4766 2.7793 10.9297V11.5332C2.7793 11.9746 2.8125 12.3633 2.87891 12.6992C2.94531 13.0312 3.04688 13.3125 3.18359 13.543C3.32422 13.7695 3.50391 13.9414 3.72266 14.0586C3.94531 14.1719 4.21289 14.2285 4.52539 14.2285C4.89258 14.2285 5.19531 14.1699 5.43359 14.0527C5.67188 13.9355 5.85352 13.7617 5.97852 13.5312C6.10742 13.3008 6.18359 13.0137 6.20703 12.6699ZM10.7891 9.16016V15.5H9.0957V9.16016H10.7891ZM8.99023 7.50781C8.99023 7.26172 9.07617 7.05859 9.24805 6.89844C9.41992 6.73828 9.65039 6.6582 9.93945 6.6582C10.2246 6.6582 10.4531 6.73828 10.625 6.89844C10.8008 7.05859 10.8887 7.26172 10.8887 7.50781C10.8887 7.75391 10.8008 7.95703 10.625 8.11719C10.4531 8.27734 10.2246 8.35742 9.93945 8.35742C9.65039 8.35742 9.41992 8.27734 9.24805 8.11719C9.07617 7.95703 8.99023 7.75391 8.99023 7.50781ZM13.8359 10.5137V15.5H12.1484V9.16016H13.7305L13.8359 10.5137ZM13.5898 12.1074H13.1328C13.1328 11.6387 13.1934 11.2168 13.3145 10.8418C13.4355 10.4629 13.6055 10.1406 13.8242 9.875C14.043 9.60547 14.3027 9.40039 14.6035 9.25977C14.9082 9.11523 15.248 9.04297 15.623 9.04297C15.9199 9.04297 16.1914 9.08594 16.4375 9.17188C16.6836 9.25781 16.8945 9.39453 17.0703 9.58203C17.25 9.76953 17.3867 10.0176 17.4805 10.3262C17.5781 10.6348 17.627 11.0117 17.627 11.457V15.5H15.9277V11.4512C15.9277 11.1699 15.8887 10.9512 15.8105 10.7949C15.7324 10.6387 15.6172 10.5293 15.4648 10.4668C15.3164 10.4004 15.1328 10.3672 14.9141 10.3672C14.6875 10.3672 14.4902 10.4121 14.3223 10.502C14.1582 10.5918 14.0215 10.7168 13.9121 10.877C13.8066 11.0332 13.7266 11.2168 13.6719 11.4277C13.6172 11.6387 13.5898 11.8652 13.5898 12.1074ZM21.8281 15.6172C21.3359 15.6172 20.8945 15.5391 20.5039 15.3828C20.1133 15.2227 19.7812 15.002 19.5078 14.7207C19.2383 14.4395 19.0312 14.1133 18.8867 13.7422C18.7422 13.3672 18.6699 12.9688 18.6699 12.5469V12.3125C18.6699 11.832 18.7383 11.3926 18.875 10.9941C19.0117 10.5957 19.207 10.25 19.4609 9.95703C19.7188 9.66406 20.0312 9.43945 20.3984 9.2832C20.7656 9.12305 21.1797 9.04297 21.6406 9.04297C22.0898 9.04297 22.4883 9.11719 22.8359 9.26562C23.1836 9.41406 23.4746 9.625 23.709 9.89844C23.9473 10.1719 24.127 10.5 24.248 10.8828C24.3691 11.2617 24.4297 11.6836 24.4297 12.1484V12.8516H19.3906V11.7266H22.7715V11.5977C22.7715 11.3633 22.7285 11.1543 22.6426 10.9707C22.5605 10.7832 22.4355 10.6348 22.2676 10.5254C22.0996 10.416 21.8848 10.3613 21.623 10.3613C21.4004 10.3613 21.209 10.4102 21.0488 10.5078C20.8887 10.6055 20.7578 10.7422 20.6562 10.918C20.5586 11.0938 20.4844 11.3008 20.4336 11.5391C20.3867 11.7734 20.3633 12.0312 20.3633 12.3125V12.5469C20.3633 12.8008 20.3984 13.0352 20.4688 13.25C20.543 13.4648 20.6465 13.6504 20.7793 13.8066C20.916 13.9629 21.0801 14.084 21.2715 14.1699C21.4668 14.2559 21.6875 14.2988 21.9336 14.2988C22.2383 14.2988 22.5215 14.2402 22.7832 14.123C23.0488 14.002 23.2773 13.8203 23.4688 13.5781L24.2891 14.4688C24.1562 14.6602 23.9746 14.8438 23.7441 15.0195C23.5176 15.1953 23.2441 15.3398 22.9238 15.4531C22.6035 15.5625 22.2383 15.6172 21.8281 15.6172Z" fill="#004AAD"/>
<path fill-rule="evenodd" clip-rule="evenodd" d="M36.9157 3.15237L37.8162 3.46242C38.6414 3.74658 39.0975 4.64025 38.8133 5.46551L34.9923 16.5625C34.7082 17.3877 33.7986 17.8112 32.9734 17.527L31.8984 17.1569C31.8396 17.1378 31.7901 17.0973 31.7599 17.0433C31.7296 16.9894 31.7208 16.926 31.7353 16.8658C31.8447 16.4134 31.7814 15.9364 31.5577 15.5282C31.3341 15.12 30.9662 14.8099 30.526 14.6585C30.0858 14.5072 29.605 14.5255 29.1776 14.7099C28.7503 14.8943 28.407 15.2315 28.2151 15.6555C28.1894 15.7116 28.1435 15.7559 28.0865 15.7795C28.0295 15.8031 27.9657 15.8043 27.9079 15.7828L27.2047 15.5407C26.8089 15.4062 26.4827 15.12 26.2978 14.745C26.113 14.37 26.0847 13.937 26.2191 13.5411L30.0164 2.44674C30.0841 2.25041 30.1898 2.06935 30.3276 1.91392C30.4653 1.75849 30.6323 1.63175 30.8191 1.54094C31.0058 1.45014 31.2087 1.39705 31.416 1.38473C31.6233 1.3724 31.831 1.40108 32.0272 1.46911L32.9502 1.78691C33.0047 1.80466 33.0514 1.84093 33.082 1.88944C33.1127 1.93794 33.1255 1.99564 33.1181 2.05255C33.0551 2.48608 33.1463 2.92796 33.3757 3.30116C33.6051 3.67437 33.9582 3.95522 34.3735 4.09478L34.3794 4.09682C34.7917 4.23973 35.241 4.23436 35.6498 4.08163C36.0586 3.9289 36.4013 3.63837 36.6189 3.26011C36.6479 3.2102 36.6935 3.17206 36.7478 3.15237C36.802 3.13267 36.8615 3.13267 36.9157 3.15237ZM33.1361 17.0542C33.7007 17.2487 34.3252 16.9643 34.5196 16.3997L38.3406 5.30272C38.535 4.73813 38.218 4.12958 37.6533 3.93515L36.9395 3.68937C36.6417 4.1104 36.2156 4.4237 35.7249 4.58242C35.2342 4.74113 34.7054 4.73672 34.2174 4.56985L34.2098 4.56724C33.7214 4.39888 33.3008 4.0768 33.0109 3.64926C32.721 3.22172 32.5774 2.71175 32.6018 2.19576L31.8644 1.94187C31.7308 1.89483 31.5892 1.87465 31.4478 1.88247C31.3064 1.89029 31.1679 1.92597 31.0403 1.98746C30.9128 2.04895 30.7986 2.13503 30.7043 2.24077C30.6101 2.34651 30.5377 2.46981 30.4912 2.60361L26.6932 13.6998C26.6013 13.9706 26.6207 14.2669 26.7471 14.5234C26.8735 14.78 27.0967 14.9759 27.3675 15.0679L27.8655 15.2394C28.4542 14.2193 29.7731 13.7516 30.8941 14.2563C31.8653 14.6934 32.4074 15.7457 32.2664 16.7548L33.1361 17.0542ZM30.5277 6.08527L34.3098 7.38754L34.4726 6.91478L30.6905 5.61251L30.5277 6.08527ZM34.3098 10.3875L30.5277 9.08527L30.6905 8.61251L34.4726 9.91478L34.3098 10.3875ZM30.5277 12.0853L34.3098 13.3876L34.4726 12.9148L30.6905 11.6125L30.5277 12.0853Z" fill="#004AAD"/>
<path d="M2.84375 19.4727V24.5H1.15039V18.1602H2.73828L2.84375 19.4727ZM2.60938 21.1074H2.14062C2.14062 20.666 2.19336 20.2598 2.29883 19.8887C2.4082 19.5137 2.56641 19.1895 2.77344 18.916C2.98438 18.6387 3.24414 18.4238 3.55273 18.2715C3.86133 18.1191 4.21875 18.043 4.625 18.043C4.90625 18.043 5.16406 18.0859 5.39844 18.1719C5.63281 18.2539 5.83398 18.3848 6.00195 18.5645C6.17383 18.7402 6.30664 18.9707 6.40039 19.2559C6.49414 19.5371 6.54102 19.875 6.54102 20.2695V24.5H4.85352V20.457C4.85352 20.168 4.81445 19.9453 4.73633 19.7891C4.6582 19.6328 4.54688 19.5234 4.40234 19.4609C4.26172 19.3984 4.0918 19.3672 3.89258 19.3672C3.67383 19.3672 3.48242 19.4121 3.31836 19.502C3.1582 19.5918 3.02539 19.7168 2.91992 19.877C2.81445 20.0332 2.73633 20.2168 2.68555 20.4277C2.63477 20.6387 2.60938 20.8652 2.60938 21.1074ZM6.38281 20.9141L5.7793 20.9902C5.7793 20.5762 5.83008 20.1914 5.93164 19.8359C6.03711 19.4805 6.19141 19.168 6.39453 18.8984C6.60156 18.6289 6.85742 18.4199 7.16211 18.2715C7.4668 18.1191 7.81836 18.043 8.2168 18.043C8.52148 18.043 8.79883 18.0879 9.04883 18.1777C9.29883 18.2637 9.51172 18.4023 9.6875 18.5938C9.86719 18.7812 10.0039 19.0273 10.0977 19.332C10.1953 19.6367 10.2441 20.0098 10.2441 20.4512V24.5H8.55078V20.4512C8.55078 20.1582 8.51172 19.9355 8.43359 19.7832C8.35938 19.627 8.25 19.5195 8.10547 19.4609C7.96484 19.3984 7.79688 19.3672 7.60156 19.3672C7.39844 19.3672 7.2207 19.4082 7.06836 19.4902C6.91602 19.5684 6.78906 19.6777 6.6875 19.8184C6.58594 19.959 6.50977 20.123 6.45898 20.3105C6.4082 20.4941 6.38281 20.6953 6.38281 20.9141ZM14.9727 23.0703V20.2461C14.9727 20.043 14.9395 19.8691 14.873 19.7246C14.8066 19.5762 14.7031 19.4609 14.5625 19.3789C14.4258 19.2969 14.248 19.2559 14.0293 19.2559C13.8418 19.2559 13.6797 19.2891 13.543 19.3555C13.4062 19.418 13.3008 19.5098 13.2266 19.6309C13.1523 19.748 13.1152 19.8867 13.1152 20.0469H11.4277C11.4277 19.7773 11.4902 19.5215 11.6152 19.2793C11.7402 19.0371 11.9219 18.8242 12.1602 18.6406C12.3984 18.4531 12.6816 18.3066 13.0098 18.2012C13.3418 18.0957 13.7129 18.043 14.123 18.043C14.6152 18.043 15.0527 18.125 15.4355 18.2891C15.8184 18.4531 16.1191 18.6992 16.3379 19.0273C16.5605 19.3555 16.6719 19.7656 16.6719 20.2578V22.9707C16.6719 23.3184 16.6934 23.6035 16.7363 23.8262C16.7793 24.0449 16.8418 24.2363 16.9238 24.4004V24.5H15.2188C15.1367 24.3281 15.0742 24.1133 15.0312 23.8555C14.9922 23.5938 14.9727 23.332 14.9727 23.0703ZM15.1953 20.6387L15.207 21.5938H14.2637C14.041 21.5938 13.8477 21.6191 13.6836 21.6699C13.5195 21.7207 13.3848 21.793 13.2793 21.8867C13.1738 21.9766 13.0957 22.082 13.0449 22.2031C12.998 22.3242 12.9746 22.457 12.9746 22.6016C12.9746 22.7461 13.0078 22.877 13.0742 22.9941C13.1406 23.1074 13.2363 23.1973 13.3613 23.2637C13.4863 23.3262 13.6328 23.3574 13.8008 23.3574C14.0547 23.3574 14.2754 23.3066 14.4629 23.2051C14.6504 23.1035 14.7949 22.9785 14.8965 22.8301C15.002 22.6816 15.0566 22.541 15.0605 22.4082L15.5059 23.123C15.4434 23.2832 15.3574 23.4492 15.248 23.6211C15.1426 23.793 15.0078 23.9551 14.8438 24.1074C14.6797 24.2559 14.4824 24.3789 14.252 24.4766C14.0215 24.5703 13.748 24.6172 13.4316 24.6172C13.0293 24.6172 12.6641 24.5371 12.3359 24.377C12.0117 24.2129 11.7539 23.9883 11.5625 23.7031C11.375 23.4141 11.2812 23.0859 11.2812 22.7188C11.2812 22.3867 11.3438 22.0918 11.4688 21.834C11.5938 21.5762 11.7773 21.3594 12.0195 21.1836C12.2656 21.0039 12.5723 20.8691 12.9395 20.7793C13.3066 20.6855 13.7324 20.6387 14.2168 20.6387H15.1953ZM21.0781 18.1602V19.3555H17.3867V18.1602H21.0781ZM18.3008 16.5957H19.9883V22.5898C19.9883 22.7734 20.0117 22.9141 20.0586 23.0117C20.1094 23.1094 20.1836 23.1777 20.2812 23.2168C20.3789 23.252 20.502 23.2695 20.6504 23.2695C20.7559 23.2695 20.8496 23.2656 20.9316 23.2578C21.0176 23.2461 21.0898 23.2344 21.1484 23.2227L21.1543 24.4648C21.0098 24.5117 20.8535 24.5488 20.6855 24.5762C20.5176 24.6035 20.332 24.6172 20.1289 24.6172C19.7578 24.6172 19.4336 24.5566 19.1562 24.4355C18.8828 24.3105 18.6719 24.1113 18.5234 23.8379C18.375 23.5645 18.3008 23.2051 18.3008 22.7598V16.5957ZM23.8203 18.1602V24.5H22.127V18.1602H23.8203ZM22.0215 16.5078C22.0215 16.2617 22.1074 16.0586 22.2793 15.8984C22.4512 15.7383 22.6816 15.6582 22.9707 15.6582C23.2559 15.6582 23.4844 15.7383 23.6562 15.8984C23.832 16.0586 23.9199 16.2617 23.9199 16.5078C23.9199 16.7539 23.832 16.957 23.6562 17.1172C23.4844 17.2773 23.2559 17.3574 22.9707 17.3574C22.6816 17.3574 22.4512 17.2773 22.2793 17.1172C22.1074 16.957 22.0215 16.7539 22.0215 16.5078ZM24.9453 21.3945V21.2715C24.9453 20.8066 25.0117 20.3789 25.1445 19.9883C25.2773 19.5938 25.4707 19.252 25.7246 18.9629C25.9785 18.6738 26.291 18.4492 26.6621 18.2891C27.0332 18.125 27.459 18.043 27.9395 18.043C28.4199 18.043 28.8477 18.125 29.2227 18.2891C29.5977 18.4492 29.9121 18.6738 30.166 18.9629C30.4238 19.252 30.6191 19.5938 30.752 19.9883C30.8848 20.3789 30.9512 20.8066 30.9512 21.2715V21.3945C30.9512 21.8555 30.8848 22.2832 30.752 22.6777C30.6191 23.0684 30.4238 23.4102 30.166 23.7031C29.9121 23.9922 29.5996 24.2168 29.2285 24.377C28.8574 24.5371 28.4316 24.6172 27.9512 24.6172C27.4707 24.6172 27.043 24.5371 26.668 24.377C26.2969 24.2168 25.9824 23.9922 25.7246 23.7031C25.4707 23.4102 25.2773 23.0684 25.1445 22.6777C25.0117 22.2832 24.9453 21.8555 24.9453 21.3945ZM26.6328 21.2715V21.3945C26.6328 21.6602 26.6562 21.9082 26.7031 22.1387C26.75 22.3691 26.8242 22.5723 26.9258 22.748C27.0312 22.9199 27.168 23.0547 27.3359 23.1523C27.5039 23.25 27.709 23.2988 27.9512 23.2988C28.1855 23.2988 28.3867 23.25 28.5547 23.1523C28.7227 23.0547 28.8574 22.9199 28.959 22.748C29.0605 22.5723 29.1348 22.3691 29.1816 22.1387C29.2324 21.9082 29.2578 21.6602 29.2578 21.3945V21.2715C29.2578 21.0137 29.2324 20.7715 29.1816 20.5449C29.1348 20.3145 29.0586 20.1113 28.9531 19.9355C28.8516 19.7559 28.7168 19.6152 28.5488 19.5137C28.3809 19.4121 28.1777 19.3613 27.9395 19.3613C27.7012 19.3613 27.498 19.4121 27.3301 19.5137C27.166 19.6152 27.0312 19.7559 26.9258 19.9355C26.8242 20.1113 26.75 20.3145 26.7031 20.5449C26.6562 20.7715 26.6328 21.0137 26.6328 21.2715ZM33.6406 19.5137V24.5H31.9531V18.1602H33.5352L33.6406 19.5137ZM33.3945 21.1074H32.9375C32.9375 20.6387 32.998 20.2168 33.1191 19.8418C33.2402 19.4629 33.4102 19.1406 33.6289 18.875C33.8477 18.6055 34.1074 18.4004 34.4082 18.2598C34.7129 18.1152 35.0527 18.043 35.4277 18.043C35.7246 18.043 35.9961 18.0859 36.2422 18.1719C36.4883 18.2578 36.6992 18.3945 36.875 18.582C37.0547 18.7695 37.1914 19.0176 37.2852 19.3262C37.3828 19.6348 37.4316 20.0117 37.4316 20.457V24.5H35.7324V20.4512C35.7324 20.1699 35.6934 19.9512 35.6152 19.7949C35.5371 19.6387 35.4219 19.5293 35.2695 19.4668C35.1211 19.4004 34.9375 19.3672 34.7188 19.3672C34.4922 19.3672 34.2949 19.4121 34.127 19.502C33.9629 19.5918 33.8262 19.7168 33.7168 19.877C33.6113 20.0332 33.5312 20.2168 33.4766 20.4277C33.4219 20.6387 33.3945 20.8652 33.3945 21.1074Z" fill="#004AAD"/>
</svg>
