<svg width="41" height="26" viewBox="0 0 41 26" fill="none" xmlns="http://www.w3.org/2000/svg">
<path d="M0.5 12.1264V10.5025C0.5 9.53166 0.840359 8.59157 1.46186 7.84577C2.41331 6.70403 3.90268 6.15826 5.36656 6.41492L7.41404 6.77389C8.12101 6.89784 8.84899 6.80226 9.5 6.5L9.8314 6.38953C10.5703 6.14323 11.381 6.24493 12.0362 6.66611L12.2718 6.81757C12.4222 6.91428 12.5505 7.04177 12.6481 7.19165L13.2112 8.05642C13.36 8.28497 13.6814 8.31856 13.8743 8.12571C13.9548 8.04522 14.0639 8 14.1778 8H16H16.8286C17.2651 8 17.6904 8.13763 18.0442 8.39331C18.5727 8.7753 19.2501 8.88664 19.873 8.69393L20.5 8.5L21.1389 8.34029C22.0172 8.1207 22.9451 8.22256 23.7549 8.62746L24.195 8.84751C24.3959 8.94797 24.5727 9.09084 24.713 9.26626C25.4825 10.2281 27.0119 9.95373 27.3991 8.78439L29.4843 2.48613C29.8017 1.52749 30.6218 0.821973 31.6171 0.651351C32.1907 0.553024 32.7807 0.640343 33.3012 0.900596L33.9566 1.2283C34.3066 1.40332 34.5803 1.70072 34.7256 2.06408L34.8085 2.27119C35.1572 3.14302 36.2384 3.4462 36.9896 2.88281C37.3144 2.63922 37.7275 2.54551 38.1256 2.62513L38.5036 2.70072C39.4097 2.88195 40.118 3.59026 40.2993 4.49641L40.363 4.81515C40.4529 5.26472 40.4301 5.72955 40.2966 6.16815L37.416 15.6332C37.1666 16.4524 37.4605 17.3399 38.1495 17.8484C38.3805 18.0189 38.5726 18.2367 38.7129 18.4872L38.7261 18.511C38.9057 18.8316 39 19.193 39 19.5605V24.691C39 24.8942 38.9527 25.0946 38.8618 25.2764C38.6401 25.7199 38.1868 26 37.691 26H2.5C1.39543 26 0.5 25.1046 0.5 24V18.8488C0.5 18.364 0.635724 17.889 0.891802 17.4775C1.27908 16.8551 1.38512 16.0979 1.18373 15.3931L0.739996 13.84C0.580776 13.2827 0.5 12.706 0.5 12.1264Z" fill="#3A6C87"/>
<path d="M6.70703 13.1699H8.45898C8.42383 13.7441 8.26562 14.2539 7.98438 14.6992C7.70703 15.1445 7.31836 15.4922 6.81836 15.7422C6.32227 15.9922 5.72461 16.1172 5.02539 16.1172C4.47852 16.1172 3.98828 16.0234 3.55469 15.8359C3.12109 15.6445 2.75 15.3711 2.44141 15.0156C2.13672 14.6602 1.9043 14.2305 1.74414 13.7266C1.58398 13.2227 1.50391 12.6582 1.50391 12.0332V11.4414C1.50391 10.8164 1.58594 10.252 1.75 9.74805C1.91797 9.24023 2.15625 8.80859 2.46484 8.45312C2.77734 8.09766 3.15039 7.82422 3.58398 7.63281C4.01758 7.44141 4.50195 7.3457 5.03711 7.3457C5.74805 7.3457 6.34766 7.47461 6.83594 7.73242C7.32812 7.99023 7.70898 8.3457 7.97852 8.79883C8.25195 9.25195 8.41602 9.76758 8.4707 10.3457H6.71289C6.69336 10.002 6.625 9.71094 6.50781 9.47266C6.39062 9.23047 6.21289 9.04883 5.97461 8.92773C5.74023 8.80273 5.42773 8.74023 5.03711 8.74023C4.74414 8.74023 4.48828 8.79492 4.26953 8.9043C4.05078 9.01367 3.86719 9.17969 3.71875 9.40234C3.57031 9.625 3.45898 9.90625 3.38477 10.2461C3.31445 10.582 3.2793 10.9766 3.2793 11.4297V12.0332C3.2793 12.4746 3.3125 12.8633 3.37891 13.1992C3.44531 13.5312 3.54688 13.8125 3.68359 14.043C3.82422 14.2695 4.00391 14.4414 4.22266 14.5586C4.44531 14.6719 4.71289 14.7285 5.02539 14.7285C5.39258 14.7285 5.69531 14.6699 5.93359 14.5527C6.17188 14.4355 6.35352 14.2617 6.47852 14.0312C6.60742 13.8008 6.68359 13.5137 6.70703 13.1699ZM11.2891 9.66016V16H9.5957V9.66016H11.2891ZM9.49023 8.00781C9.49023 7.76172 9.57617 7.55859 9.74805 7.39844C9.91992 7.23828 10.1504 7.1582 10.4395 7.1582C10.7246 7.1582 10.9531 7.23828 11.125 7.39844C11.3008 7.55859 11.3887 7.76172 11.3887 8.00781C11.3887 8.25391 11.3008 8.45703 11.125 8.61719C10.9531 8.77734 10.7246 8.85742 10.4395 8.85742C10.1504 8.85742 9.91992 8.77734 9.74805 8.61719C9.57617 8.45703 9.49023 8.25391 9.49023 8.00781ZM14.3359 11.0137V16H12.6484V9.66016H14.2305L14.3359 11.0137ZM14.0898 12.6074H13.6328C13.6328 12.1387 13.6934 11.7168 13.8145 11.3418C13.9355 10.9629 14.1055 10.6406 14.3242 10.375C14.543 10.1055 14.8027 9.90039 15.1035 9.75977C15.4082 9.61523 15.748 9.54297 16.123 9.54297C16.4199 9.54297 16.6914 9.58594 16.9375 9.67188C17.1836 9.75781 17.3945 9.89453 17.5703 10.082C17.75 10.2695 17.8867 10.5176 17.9805 10.8262C18.0781 11.1348 18.127 11.5117 18.127 11.957V16H16.4277V11.9512C16.4277 11.6699 16.3887 11.4512 16.3105 11.2949C16.2324 11.1387 16.1172 11.0293 15.9648 10.9668C15.8164 10.9004 15.6328 10.8672 15.4141 10.8672C15.1875 10.8672 14.9902 10.9121 14.8223 11.002C14.6582 11.0918 14.5215 11.2168 14.4121 11.377C14.3066 11.5332 14.2266 11.7168 14.1719 11.9277C14.1172 12.1387 14.0898 12.3652 14.0898 12.6074ZM22.3281 16.1172C21.8359 16.1172 21.3945 16.0391 21.0039 15.8828C20.6133 15.7227 20.2812 15.502 20.0078 15.2207C19.7383 14.9395 19.5312 14.6133 19.3867 14.2422C19.2422 13.8672 19.1699 13.4688 19.1699 13.0469V12.8125C19.1699 12.332 19.2383 11.8926 19.375 11.4941C19.5117 11.0957 19.707 10.75 19.9609 10.457C20.2188 10.1641 20.5312 9.93945 20.8984 9.7832C21.2656 9.62305 21.6797 9.54297 22.1406 9.54297C22.5898 9.54297 22.9883 9.61719 23.3359 9.76562C23.6836 9.91406 23.9746 10.125 24.209 10.3984C24.4473 10.6719 24.627 11 24.748 11.3828C24.8691 11.7617 24.9297 12.1836 24.9297 12.6484V13.3516H19.8906V12.2266H23.2715V12.0977C23.2715 11.8633 23.2285 11.6543 23.1426 11.4707C23.0605 11.2832 22.9355 11.1348 22.7676 11.0254C22.5996 10.916 22.3848 10.8613 22.123 10.8613C21.9004 10.8613 21.709 10.9102 21.5488 11.0078C21.3887 11.1055 21.2578 11.2422 21.1562 11.418C21.0586 11.5938 20.9844 11.8008 20.9336 12.0391C20.8867 12.2734 20.8633 12.5312 20.8633 12.8125V13.0469C20.8633 13.3008 20.8984 13.5352 20.9688 13.75C21.043 13.9648 21.1465 14.1504 21.2793 14.3066C21.416 14.4629 21.5801 14.584 21.7715 14.6699C21.9668 14.7559 22.1875 14.7988 22.4336 14.7988C22.7383 14.7988 23.0215 14.7402 23.2832 14.623C23.5488 14.502 23.7773 14.3203 23.9688 14.0781L24.7891 14.9688C24.6562 15.1602 24.4746 15.3438 24.2441 15.5195C24.0176 15.6953 23.7441 15.8398 23.4238 15.9531C23.1035 16.0625 22.7383 16.1172 22.3281 16.1172Z" fill="white"/>
<path fill-rule="evenodd" clip-rule="evenodd" d="M37.4157 3.65237L38.3162 3.96242C39.1414 4.24658 39.5975 5.14025 39.3133 5.96551L35.4923 17.0625C35.2082 17.8877 34.2986 18.3112 33.4733 18.027L32.3984 17.6569C32.3396 17.6378 32.2901 17.5973 32.2598 17.5433C32.2296 17.4894 32.2208 17.426 32.2353 17.3658C32.3447 16.9134 32.2814 16.4364 32.0577 16.0282C31.8341 15.62 31.4662 15.3099 31.026 15.1585C30.5858 15.0072 30.105 15.0255 29.6776 15.2099C29.2502 15.3943 28.907 15.7315 28.715 16.1555C28.6894 16.2116 28.6435 16.2559 28.5865 16.2795C28.5295 16.3031 28.4657 16.3043 28.4079 16.2828L27.7047 16.0407C27.3088 15.9062 26.9826 15.62 26.7978 15.245C26.613 14.87 26.5846 14.437 26.719 14.0411L30.5164 2.94674C30.5841 2.75041 30.6898 2.56935 30.8275 2.41392C30.9653 2.25849 31.1323 2.13175 31.3191 2.04094C31.5058 1.95014 31.7086 1.89705 31.916 1.88473C32.1233 1.8724 32.3309 1.90108 32.5272 1.96911L33.4501 2.28691C33.5047 2.30466 33.5514 2.34093 33.582 2.38944C33.6127 2.43794 33.6254 2.49564 33.618 2.55255C33.5551 2.98608 33.6462 3.42796 33.8757 3.80116C34.1051 4.17437 34.4582 4.45522 34.8734 4.59478L34.8793 4.59682C35.2917 4.73973 35.7409 4.73436 36.1497 4.58163C36.5585 4.4289 36.9013 4.13837 37.1189 3.76011C37.1479 3.7102 37.1935 3.67206 37.2477 3.65237C37.302 3.63267 37.3614 3.63267 37.4157 3.65237ZM33.6361 17.5542C34.2007 17.7487 34.8252 17.4643 35.0196 16.8997L38.8405 5.80272C39.035 5.23813 38.718 4.62958 38.1533 4.43515L37.4395 4.18937C37.1417 4.6104 36.7156 4.9237 36.2249 5.08242C35.7342 5.24113 35.2053 5.23672 34.7174 5.06985L34.7098 5.06724C34.2214 4.89888 33.8008 4.5768 33.5109 4.14926C33.221 3.72172 33.0774 3.21175 33.1017 2.69576L32.3644 2.44187C32.2308 2.39483 32.0892 2.37465 31.9478 2.38247C31.8064 2.39029 31.6679 2.42597 31.5403 2.48746C31.4127 2.54895 31.2985 2.63503 31.2043 2.74077C31.1101 2.84651 31.0377 2.96981 30.9912 3.10361L27.1932 14.1998C27.1013 14.4706 27.1206 14.7669 27.2471 15.0234C27.3735 15.28 27.5966 15.4759 27.8674 15.5679L28.3654 15.7394C28.9542 14.7193 30.2731 14.2516 31.3941 14.7563C32.3652 15.1934 32.9074 16.2457 32.7664 17.2548L33.6361 17.5542ZM31.0277 6.58527L34.8098 7.88754L34.9725 7.41478L31.1905 6.11251L31.0277 6.58527ZM34.8098 10.8875L31.0277 9.58527L31.1905 9.11251L34.9725 10.4148L34.8098 10.8875ZM31.0277 12.5853L34.8098 13.8876L34.9725 13.4148L31.1905 12.1125L31.0277 12.5853Z" fill="white"/>
<path d="M3.34375 19.9727V25H1.65039V18.6602H3.23828L3.34375 19.9727ZM3.10938 21.6074H2.64062C2.64062 21.166 2.69336 20.7598 2.79883 20.3887C2.9082 20.0137 3.06641 19.6895 3.27344 19.416C3.48438 19.1387 3.74414 18.9238 4.05273 18.7715C4.36133 18.6191 4.71875 18.543 5.125 18.543C5.40625 18.543 5.66406 18.5859 5.89844 18.6719C6.13281 18.7539 6.33398 18.8848 6.50195 19.0645C6.67383 19.2402 6.80664 19.4707 6.90039 19.7559C6.99414 20.0371 7.04102 20.375 7.04102 20.7695V25H5.35352V20.957C5.35352 20.668 5.31445 20.4453 5.23633 20.2891C5.1582 20.1328 5.04688 20.0234 4.90234 19.9609C4.76172 19.8984 4.5918 19.8672 4.39258 19.8672C4.17383 19.8672 3.98242 19.9121 3.81836 20.002C3.6582 20.0918 3.52539 20.2168 3.41992 20.377C3.31445 20.5332 3.23633 20.7168 3.18555 20.9277C3.13477 21.1387 3.10938 21.3652 3.10938 21.6074ZM6.88281 21.4141L6.2793 21.4902C6.2793 21.0762 6.33008 20.6914 6.43164 20.3359C6.53711 19.9805 6.69141 19.668 6.89453 19.3984C7.10156 19.1289 7.35742 18.9199 7.66211 18.7715C7.9668 18.6191 8.31836 18.543 8.7168 18.543C9.02148 18.543 9.29883 18.5879 9.54883 18.6777C9.79883 18.7637 10.0117 18.9023 10.1875 19.0938C10.3672 19.2812 10.5039 19.5273 10.5977 19.832C10.6953 20.1367 10.7441 20.5098 10.7441 20.9512V25H9.05078V20.9512C9.05078 20.6582 9.01172 20.4355 8.93359 20.2832C8.85938 20.127 8.75 20.0195 8.60547 19.9609C8.46484 19.8984 8.29688 19.8672 8.10156 19.8672C7.89844 19.8672 7.7207 19.9082 7.56836 19.9902C7.41602 20.0684 7.28906 20.1777 7.1875 20.3184C7.08594 20.459 7.00977 20.623 6.95898 20.8105C6.9082 20.9941 6.88281 21.1953 6.88281 21.4141ZM15.4727 23.5703V20.7461C15.4727 20.543 15.4395 20.3691 15.373 20.2246C15.3066 20.0762 15.2031 19.9609 15.0625 19.8789C14.9258 19.7969 14.748 19.7559 14.5293 19.7559C14.3418 19.7559 14.1797 19.7891 14.043 19.8555C13.9062 19.918 13.8008 20.0098 13.7266 20.1309C13.6523 20.248 13.6152 20.3867 13.6152 20.5469H11.9277C11.9277 20.2773 11.9902 20.0215 12.1152 19.7793C12.2402 19.5371 12.4219 19.3242 12.6602 19.1406C12.8984 18.9531 13.1816 18.8066 13.5098 18.7012C13.8418 18.5957 14.2129 18.543 14.623 18.543C15.1152 18.543 15.5527 18.625 15.9355 18.7891C16.3184 18.9531 16.6191 19.1992 16.8379 19.5273C17.0605 19.8555 17.1719 20.2656 17.1719 20.7578V23.4707C17.1719 23.8184 17.1934 24.1035 17.2363 24.3262C17.2793 24.5449 17.3418 24.7363 17.4238 24.9004V25H15.7188C15.6367 24.8281 15.5742 24.6133 15.5312 24.3555C15.4922 24.0938 15.4727 23.832 15.4727 23.5703ZM15.6953 21.1387L15.707 22.0938H14.7637C14.541 22.0938 14.3477 22.1191 14.1836 22.1699C14.0195 22.2207 13.8848 22.293 13.7793 22.3867C13.6738 22.4766 13.5957 22.582 13.5449 22.7031C13.498 22.8242 13.4746 22.957 13.4746 23.1016C13.4746 23.2461 13.5078 23.377 13.5742 23.4941C13.6406 23.6074 13.7363 23.6973 13.8613 23.7637C13.9863 23.8262 14.1328 23.8574 14.3008 23.8574C14.5547 23.8574 14.7754 23.8066 14.9629 23.7051C15.1504 23.6035 15.2949 23.4785 15.3965 23.3301C15.502 23.1816 15.5566 23.041 15.5605 22.9082L16.0059 23.623C15.9434 23.7832 15.8574 23.9492 15.748 24.1211C15.6426 24.293 15.5078 24.4551 15.3438 24.6074C15.1797 24.7559 14.9824 24.8789 14.752 24.9766C14.5215 25.0703 14.248 25.1172 13.9316 25.1172C13.5293 25.1172 13.1641 25.0371 12.8359 24.877C12.5117 24.7129 12.2539 24.4883 12.0625 24.2031C11.875 23.9141 11.7812 23.5859 11.7812 23.2188C11.7812 22.8867 11.8438 22.5918 11.9688 22.334C12.0938 22.0762 12.2773 21.8594 12.5195 21.6836C12.7656 21.5039 13.0723 21.3691 13.4395 21.2793C13.8066 21.1855 14.2324 21.1387 14.7168 21.1387H15.6953ZM21.5781 18.6602V19.8555H17.8867V18.6602H21.5781ZM18.8008 17.0957H20.4883V23.0898C20.4883 23.2734 20.5117 23.4141 20.5586 23.5117C20.6094 23.6094 20.6836 23.6777 20.7812 23.7168C20.8789 23.752 21.002 23.7695 21.1504 23.7695C21.2559 23.7695 21.3496 23.7656 21.4316 23.7578C21.5176 23.7461 21.5898 23.7344 21.6484 23.7227L21.6543 24.9648C21.5098 25.0117 21.3535 25.0488 21.1855 25.0762C21.0176 25.1035 20.832 25.1172 20.6289 25.1172C20.2578 25.1172 19.9336 25.0566 19.6562 24.9355C19.3828 24.8105 19.1719 24.6113 19.0234 24.3379C18.875 24.0645 18.8008 23.7051 18.8008 23.2598V17.0957ZM24.3203 18.6602V25H22.627V18.6602H24.3203ZM22.5215 17.0078C22.5215 16.7617 22.6074 16.5586 22.7793 16.3984C22.9512 16.2383 23.1816 16.1582 23.4707 16.1582C23.7559 16.1582 23.9844 16.2383 24.1562 16.3984C24.332 16.5586 24.4199 16.7617 24.4199 17.0078C24.4199 17.2539 24.332 17.457 24.1562 17.6172C23.9844 17.7773 23.7559 17.8574 23.4707 17.8574C23.1816 17.8574 22.9512 17.7773 22.7793 17.6172C22.6074 17.457 22.5215 17.2539 22.5215 17.0078ZM25.4453 21.8945V21.7715C25.4453 21.3066 25.5117 20.8789 25.6445 20.4883C25.7773 20.0938 25.9707 19.752 26.2246 19.4629C26.4785 19.1738 26.791 18.9492 27.1621 18.7891C27.5332 18.625 27.959 18.543 28.4395 18.543C28.9199 18.543 29.3477 18.625 29.7227 18.7891C30.0977 18.9492 30.4121 19.1738 30.666 19.4629C30.9238 19.752 31.1191 20.0938 31.252 20.4883C31.3848 20.8789 31.4512 21.3066 31.4512 21.7715V21.8945C31.4512 22.3555 31.3848 22.7832 31.252 23.1777C31.1191 23.5684 30.9238 23.9102 30.666 24.2031C30.4121 24.4922 30.0996 24.7168 29.7285 24.877C29.3574 25.0371 28.9316 25.1172 28.4512 25.1172C27.9707 25.1172 27.543 25.0371 27.168 24.877C26.7969 24.7168 26.4824 24.4922 26.2246 24.2031C25.9707 23.9102 25.7773 23.5684 25.6445 23.1777C25.5117 22.7832 25.4453 22.3555 25.4453 21.8945ZM27.1328 21.7715V21.8945C27.1328 22.1602 27.1562 22.4082 27.2031 22.6387C27.25 22.8691 27.3242 23.0723 27.4258 23.248C27.5312 23.4199 27.668 23.5547 27.8359 23.6523C28.0039 23.75 28.209 23.7988 28.4512 23.7988C28.6855 23.7988 28.8867 23.75 29.0547 23.6523C29.2227 23.5547 29.3574 23.4199 29.459 23.248C29.5605 23.0723 29.6348 22.8691 29.6816 22.6387C29.7324 22.4082 29.7578 22.1602 29.7578 21.8945V21.7715C29.7578 21.5137 29.7324 21.2715 29.6816 21.0449C29.6348 20.8145 29.5586 20.6113 29.4531 20.4355C29.3516 20.2559 29.2168 20.1152 29.0488 20.0137C28.8809 19.9121 28.6777 19.8613 28.4395 19.8613C28.2012 19.8613 27.998 19.9121 27.8301 20.0137C27.666 20.1152 27.5312 20.2559 27.4258 20.4355C27.3242 20.6113 27.25 20.8145 27.2031 21.0449C27.1562 21.2715 27.1328 21.5137 27.1328 21.7715ZM34.1406 20.0137V25H32.4531V18.6602H34.0352L34.1406 20.0137ZM33.8945 21.6074H33.4375C33.4375 21.1387 33.498 20.7168 33.6191 20.3418C33.7402 19.9629 33.9102 19.6406 34.1289 19.375C34.3477 19.1055 34.6074 18.9004 34.9082 18.7598C35.2129 18.6152 35.5527 18.543 35.9277 18.543C36.2246 18.543 36.4961 18.5859 36.7422 18.6719C36.9883 18.7578 37.1992 18.8945 37.375 19.082C37.5547 19.2695 37.6914 19.5176 37.7852 19.8262C37.8828 20.1348 37.9316 20.5117 37.9316 20.957V25H36.2324V20.9512C36.2324 20.6699 36.1934 20.4512 36.1152 20.2949C36.0371 20.1387 35.9219 20.0293 35.7695 19.9668C35.6211 19.9004 35.4375 19.8672 35.2188 19.8672C34.9922 19.8672 34.7949 19.9121 34.627 20.002C34.4629 20.0918 34.3262 20.2168 34.2168 20.377C34.1113 20.5332 34.0312 20.7168 33.9766 20.9277C33.9219 21.1387 33.8945 21.3652 33.8945 21.6074Z" fill="white"/>
</svg>
