<svg width="81" height="20" viewBox="0 0 81 20" fill="none" xmlns="http://www.w3.org/2000/svg">
<path d="M0.675275 13.0131L4.86812 1.36634C4.95497 1.1251 5.09401 0.906007 5.27531 0.724704C5.72259 0.277411 6.37722 0.107778 6.98545 0.281556L8.83561 0.810174C9.24672 0.927633 9.56389 1.25555 9.66759 1.67035C9.84342 2.37368 10.5994 2.76023 11.2725 2.49098L11.8943 2.24228C12.2854 2.08584 12.7193 2.07309 13.1189 2.2063L13.6026 2.36755C14.7357 2.74525 15.5 3.80563 15.5 5.00001C15.5 5.82844 16.1784 6.50001 17.0069 6.50001H77.8423C78.2671 6.50001 78.6886 6.62574 79.042 6.86134C79.6405 7.26035 80 7.93208 80 8.6514V16.2929C80 16.7457 79.8201 17.1799 79.5 17.5C79.1799 17.8202 78.7388 18 78.2861 18H12.3826C11.8046 18 11.2242 18.1103 10.6875 18.325L10.2817 18.4873C9.45893 18.8164 8.54107 18.8164 7.71828 18.4873L7.13275 18.2531C6.72515 18.0901 6.39155 17.7831 6.19523 17.3905C5.79631 16.5926 4.87143 16.2095 4.02519 16.4916L3.62982 16.6234C2.92223 16.8593 2.14395 16.733 1.54725 16.2855L1.4766 16.2325C0.861818 15.7714 0.5 15.0477 0.5 14.2793V14.0175C0.5 13.6751 0.559302 13.3353 0.675275 13.0131Z" stroke="black" stroke-width="0.3"/>
<path d="M16.6818 16.6279C16.0114 16.6279 15.4347 16.4858 14.9517 16.2017C14.4716 15.9148 14.1023 15.5171 13.8438 15.0085C13.5881 14.5 13.4602 13.9148 13.4602 13.2529C13.4602 12.5824 13.5895 11.9943 13.848 11.4887C14.1094 10.9801 14.4801 10.5838 14.9602 10.2997C15.4403 10.0128 16.0114 9.86933 16.6733 9.86933C17.2443 9.86933 17.7443 9.97303 18.1733 10.1804C18.6023 10.3878 18.9418 10.679 19.1918 11.054C19.4418 11.429 19.5795 11.8693 19.6051 12.375H17.892C17.8438 12.0483 17.7159 11.7855 17.5085 11.5867C17.304 11.385 17.0355 11.2841 16.7031 11.2841C16.4219 11.2841 16.1761 11.3608 15.9659 11.5142C15.7585 11.6648 15.5966 11.885 15.4801 12.1747C15.3636 12.4645 15.3054 12.8154 15.3054 13.2273C15.3054 13.6449 15.3622 14 15.4759 14.2926C15.5923 14.5852 15.7557 14.8083 15.9659 14.9617C16.1761 15.1151 16.4219 15.1918 16.7031 15.1918C16.9105 15.1918 17.0966 15.1492 17.2614 15.0639C17.429 14.9787 17.5668 14.8551 17.6747 14.6932C17.7855 14.5284 17.858 14.331 17.892 14.1009H19.6051C19.5767 14.6009 19.4403 15.0412 19.196 15.4219C18.9545 15.7997 18.6207 16.0952 18.1946 16.3083C17.7685 16.5213 17.2642 16.6279 16.6818 16.6279ZM20.7674 16.5V9.95456H22.5827V16.5H20.7674ZM21.6793 9.11081C21.4094 9.11081 21.1779 9.02132 20.9847 8.84234C20.7944 8.66053 20.6992 8.4432 20.6992 8.19036C20.6992 7.94036 20.7944 7.72587 20.9847 7.54689C21.1779 7.36507 21.4094 7.27416 21.6793 7.27416C21.9492 7.27416 22.1793 7.36507 22.3697 7.54689C22.5629 7.72587 22.6594 7.94036 22.6594 8.19036C22.6594 8.4432 22.5629 8.66053 22.3697 8.84234C22.1793 9.02132 21.9492 9.11081 21.6793 9.11081ZM25.8523 12.7159V16.5H24.0369V9.95456H25.767V11.1094H25.8438C25.9886 10.7287 26.2315 10.4276 26.5724 10.206C26.9134 9.98155 27.3267 9.86933 27.8125 9.86933C28.267 9.86933 28.6634 9.96877 29.0014 10.1676C29.3395 10.3665 29.6023 10.6506 29.7898 11.0199C29.9773 11.3864 30.071 11.8239 30.071 12.3324V16.5H28.2557V12.6563C28.2585 12.2557 28.1563 11.9432 27.9489 11.7188C27.7415 11.4915 27.456 11.3779 27.0923 11.3779C26.848 11.3779 26.6321 11.4304 26.4446 11.5355C26.2599 11.6406 26.1151 11.794 26.0099 11.9958C25.9077 12.1946 25.8551 12.4347 25.8523 12.7159ZM34.4847 16.6279C33.8114 16.6279 33.2319 16.4915 32.7461 16.2188C32.2631 15.9432 31.891 15.554 31.6296 15.0512C31.3683 14.5455 31.2376 13.9475 31.2376 13.2571C31.2376 12.5838 31.3683 11.9929 31.6296 11.4844C31.891 10.9759 32.2589 10.5796 32.7333 10.2955C33.2106 10.0114 33.7702 9.86933 34.4123 9.86933C34.8441 9.86933 35.2461 9.93894 35.6183 10.0781C35.9933 10.2145 36.32 10.4205 36.5984 10.696C36.8796 10.9716 37.0984 11.3182 37.2546 11.7358C37.4109 12.1506 37.489 12.6364 37.489 13.1932V13.6918H31.962V12.5668H35.7802C35.7802 12.3054 35.7234 12.0739 35.6097 11.8722C35.4961 11.6705 35.3384 11.5128 35.1367 11.3992C34.9379 11.2827 34.7063 11.2244 34.4421 11.2244C34.1665 11.2244 33.9222 11.2884 33.7092 11.4162C33.4989 11.5412 33.3342 11.7102 33.2148 11.9233C33.0955 12.1335 33.0344 12.3679 33.0316 12.6264V13.696C33.0316 14.0199 33.0913 14.2997 33.2106 14.5355C33.3327 14.7713 33.5046 14.9531 33.7262 15.081C33.9478 15.2088 34.2106 15.2727 34.5146 15.2727C34.7163 15.2727 34.9009 15.2443 35.0685 15.1875C35.2362 15.1307 35.3796 15.0455 35.4989 14.9318C35.6183 14.8182 35.7092 14.679 35.7717 14.5142L37.4506 14.625C37.3654 15.0284 37.1907 15.3807 36.9265 15.6818C36.6651 15.9801 36.3271 16.2131 35.9123 16.3807C35.5004 16.5455 35.0245 16.6279 34.4847 16.6279ZM38.6737 16.5V9.95456H40.4038V11.1094H40.4805C40.6168 10.7259 40.8441 10.4233 41.1623 10.2017C41.4805 9.98013 41.8612 9.86933 42.3043 9.86933C42.7532 9.86933 43.1353 9.98155 43.4506 10.206C43.766 10.4276 43.9762 10.7287 44.0813 11.1094H44.1495C44.283 10.7344 44.5245 10.4347 44.8739 10.2102C45.2262 9.98297 45.6424 9.86933 46.1225 9.86933C46.7333 9.86933 47.229 10.0639 47.6097 10.4531C47.9933 10.8395 48.185 11.3878 48.185 12.098V16.5H46.3739V12.456C46.3739 12.0923 46.2773 11.8196 46.0842 11.6378C45.891 11.456 45.6495 11.3651 45.3597 11.3651C45.0302 11.3651 44.7731 11.4702 44.5884 11.6804C44.4038 11.8878 44.3114 12.1619 44.3114 12.5029V16.5H42.5515V12.4176C42.5515 12.0966 42.4592 11.8409 42.2745 11.6506C42.0927 11.4602 41.8526 11.3651 41.5543 11.3651C41.3526 11.3651 41.1708 11.4162 41.0089 11.5185C40.8498 11.6179 40.7234 11.7585 40.6296 11.9404C40.5359 12.1193 40.489 12.3296 40.489 12.571V16.5H38.6737ZM51.4854 16.6236C51.0678 16.6236 50.6957 16.5512 50.369 16.4063C50.0423 16.2585 49.7837 16.0412 49.5934 15.7543C49.4059 15.4645 49.3121 15.1037 49.3121 14.6719C49.3121 14.3083 49.3789 14.0029 49.5124 13.7557C49.646 13.5085 49.8278 13.3097 50.0579 13.1591C50.288 13.0085 50.5494 12.8949 50.842 12.8182C51.1374 12.7415 51.4471 12.6875 51.771 12.6563C52.1516 12.6165 52.4585 12.5796 52.6914 12.5455C52.9244 12.5085 53.0934 12.4546 53.1985 12.3835C53.3036 12.3125 53.3562 12.2074 53.3562 12.0682V12.0426C53.3562 11.7727 53.271 11.5639 53.1005 11.4162C52.9329 11.2685 52.6942 11.1946 52.3846 11.1946C52.0579 11.1946 51.7979 11.2671 51.6048 11.4119C51.4116 11.554 51.2837 11.733 51.2212 11.9489L49.5423 11.8125C49.6275 11.4148 49.7951 11.071 50.0451 10.7813C50.2951 10.4887 50.6175 10.2642 51.0124 10.108C51.4102 9.94888 51.8704 9.86933 52.3931 9.86933C52.7567 9.86933 53.1048 9.91195 53.4371 9.99717C53.7724 10.0824 54.0692 10.2145 54.3278 10.3935C54.5891 10.5725 54.7951 10.8026 54.9457 11.0838C55.0962 11.3622 55.1715 11.696 55.1715 12.0852V16.5H53.4499V15.5923H53.3988C53.2937 15.7969 53.1531 15.9773 52.9769 16.1335C52.8008 16.2869 52.5891 16.4077 52.342 16.4958C52.0948 16.581 51.8093 16.6236 51.4854 16.6236ZM52.0053 15.3708C52.2724 15.3708 52.5082 15.3182 52.7127 15.2131C52.9173 15.1051 53.0778 14.9602 53.1942 14.7784C53.3107 14.5966 53.369 14.3906 53.369 14.1605V13.4659C53.3121 13.5029 53.234 13.5369 53.1346 13.5682C53.038 13.5966 52.9286 13.6236 52.8065 13.6492C52.6843 13.6719 52.5621 13.6932 52.44 13.7131C52.3178 13.7301 52.207 13.7458 52.1076 13.76C51.8945 13.7912 51.7085 13.8409 51.5494 13.9091C51.3903 13.9773 51.2667 14.0696 51.1786 14.1861C51.0906 14.2997 51.0465 14.4418 51.0465 14.6122C51.0465 14.8594 51.136 15.0483 51.315 15.179C51.4968 15.3068 51.7269 15.3708 52.0053 15.3708ZM60.0614 9.95456V11.3182H56.1197V9.95456H60.0614ZM57.0146 8.38638H58.8299V14.4887C58.8299 14.6563 58.8555 14.7869 58.9066 14.8807C58.9577 14.9716 59.0288 15.0355 59.1197 15.0725C59.2134 15.1094 59.3214 15.1279 59.4435 15.1279C59.5288 15.1279 59.614 15.1208 59.6992 15.1065C59.7844 15.0895 59.8498 15.0767 59.8952 15.0682L60.1808 16.419C60.0898 16.4475 59.962 16.4801 59.7972 16.5171C59.6325 16.5568 59.4322 16.581 59.1964 16.5895C58.7589 16.6065 58.3754 16.5483 58.0458 16.4148C57.7191 16.2813 57.4648 16.0739 57.283 15.7926C57.1012 15.5114 57.0117 15.1563 57.0146 14.7273V8.38638ZM61.244 16.5V9.95456H63.0593V16.5H61.244ZM62.1559 9.11081C61.886 9.11081 61.6545 9.02132 61.4613 8.84234C61.271 8.66053 61.1758 8.4432 61.1758 8.19036C61.1758 7.94036 61.271 7.72587 61.4613 7.54689C61.6545 7.36507 61.886 7.27416 62.1559 7.27416C62.4258 7.27416 62.6559 7.36507 62.8462 7.54689C63.0394 7.72587 63.136 7.94036 63.136 8.19036C63.136 8.4432 63.0394 8.66053 62.8462 8.84234C62.6559 9.02132 62.4258 9.11081 62.1559 9.11081ZM67.4709 16.6279C66.8089 16.6279 66.2365 16.4872 65.7536 16.206C65.2734 15.9219 64.9027 15.527 64.6413 15.0213C64.38 14.5128 64.2493 13.9233 64.2493 13.2529C64.2493 12.5767 64.38 11.9858 64.6413 11.4801C64.9027 10.9716 65.2734 10.5767 65.7536 10.2955C66.2365 10.0114 66.8089 9.86933 67.4709 9.86933C68.1328 9.86933 68.7038 10.0114 69.1839 10.2955C69.6669 10.5767 70.0391 10.9716 70.3004 11.4801C70.5618 11.9858 70.6925 12.5767 70.6925 13.2529C70.6925 13.9233 70.5618 14.5128 70.3004 15.0213C70.0391 15.527 69.6669 15.9219 69.1839 16.206C68.7038 16.4872 68.1328 16.6279 67.4709 16.6279ZM67.4794 15.2216C67.7805 15.2216 68.032 15.1364 68.2337 14.9659C68.4354 14.7926 68.5874 14.5568 68.6896 14.2585C68.7947 13.9602 68.8473 13.6208 68.8473 13.2401C68.8473 12.8594 68.7947 12.5199 68.6896 12.2216C68.5874 11.9233 68.4354 11.6875 68.2337 11.5142C68.032 11.3409 67.7805 11.2543 67.4794 11.2543C67.1754 11.2543 66.9197 11.3409 66.7124 11.5142C66.5078 11.6875 66.353 11.9233 66.2479 12.2216C66.1456 12.5199 66.0945 12.8594 66.0945 13.2401C66.0945 13.6208 66.1456 13.9602 66.2479 14.2585C66.353 14.5568 66.5078 14.7926 66.7124 14.9659C66.9197 15.1364 67.1754 15.2216 67.4794 15.2216ZM73.6882 12.7159V16.5H71.8729V9.95456H73.603V11.1094H73.6797C73.8246 10.7287 74.0675 10.4276 74.4084 10.206C74.7493 9.98155 75.1626 9.86933 75.6484 9.86933C76.103 9.86933 76.4993 9.96877 76.8374 10.1676C77.1754 10.3665 77.4382 10.6506 77.6257 11.0199C77.8132 11.3864 77.907 11.8239 77.907 12.3324V16.5H76.0916V12.6563C76.0945 12.2557 75.9922 11.9432 75.7848 11.7188C75.5774 11.4915 75.2919 11.3779 74.9283 11.3779C74.6839 11.3779 74.468 11.4304 74.2805 11.5355C74.0959 11.6406 73.951 11.794 73.8459 11.9958C73.7436 12.1946 73.6911 12.4347 73.6882 12.7159Z" fill="black"/>
<g clip-path="url(#clip0_1_72)">
<path d="M13.3162 3.46244L12.4157 3.15239C12.3615 3.13269 12.302 3.13269 12.2478 3.15239C12.1935 3.17208 12.1479 3.21022 12.1189 3.26013C11.9013 3.63839 11.5586 3.92892 11.1498 4.08165C10.741 4.23438 10.2917 4.23975 9.87936 4.09684L9.87345 4.0948C9.45819 3.95525 9.10508 3.67439 8.87567 3.30118C8.64626 2.92798 8.55509 2.4861 8.61806 2.05257C8.62544 1.99566 8.6127 1.93796 8.58203 1.88946C8.55137 1.84095 8.50472 1.80468 8.45015 1.78693L7.52717 1.46913C7.33097 1.4011 7.12327 1.37242 6.91597 1.38475C6.70866 1.39707 6.50583 1.45016 6.31907 1.54096C6.1323 1.63177 5.96528 1.75851 5.82755 1.91394C5.68983 2.06937 5.58411 2.25043 5.51643 2.44676L1.71905 13.5411C1.58466 13.937 1.61299 14.37 1.79782 14.745C1.98265 15.12 2.30885 15.4062 2.70468 15.5407L3.4079 15.7829C3.46572 15.8043 3.52952 15.8032 3.58649 15.7795C3.64347 15.7559 3.6894 15.7116 3.71506 15.6555C3.907 15.2315 4.25024 14.8943 4.67763 14.7099C5.10503 14.5255 5.58583 14.5072 6.02601 14.6586C6.46619 14.8099 6.83408 15.12 7.05773 15.5282C7.28137 15.9365 7.34468 16.4134 7.23527 16.8659C7.22083 16.926 7.2296 16.9894 7.25984 17.0433C7.29009 17.0973 7.33957 17.1378 7.39841 17.1569L8.47334 17.527C9.2986 17.8112 10.2082 17.3877 10.4923 16.5625L14.3133 5.46553C14.5975 4.64027 14.1414 3.7466 13.3162 3.46244ZM10.0196 16.3997C9.82517 16.9643 9.20072 17.2487 8.63613 17.0543L7.76643 16.7548C7.90738 15.7457 7.36527 14.6934 6.3941 14.2563C5.2731 13.7517 3.95422 14.2193 3.36545 15.2394L2.86746 15.068C2.59666 14.9759 2.37351 14.78 2.24707 14.5235C2.12064 14.2669 2.10127 13.9706 2.19322 13.6998L5.99123 2.60363C6.03767 2.46983 6.11009 2.34653 6.20432 2.24079C6.29855 2.13505 6.41274 2.04897 6.54033 1.98748C6.66792 1.92599 6.8064 1.89031 6.94781 1.88249C7.08923 1.87467 7.2308 1.89485 7.36439 1.94189L8.10175 2.19578C8.07742 2.71177 8.22097 3.22174 8.51087 3.64928C8.80078 4.07682 9.22142 4.3989 9.70978 4.56726L9.71737 4.56987C10.2053 4.73674 10.7342 4.74115 11.2249 4.58244C11.7156 4.42372 12.1417 4.11042 12.4395 3.68939L13.1533 3.93517C13.718 4.1296 14.035 4.73815 13.8406 5.30274L10.0196 16.3997Z" fill="black"/>
<path d="M6.1091 5.84891L9.89117 7.15118" stroke="black" stroke-width="0.5"/>
<path d="M6.1091 8.84891L9.89117 10.1512" stroke="black" stroke-width="0.5"/>
<path d="M6.1091 11.8489L9.89117 13.1512" stroke="black" stroke-width="0.5"/>
</g>
<defs>
<clipPath id="clip0_1_72">
<rect width="16" height="16" fill="white" transform="translate(0 1.50002)"/>
</clipPath>
</defs>
</svg>
